<svg width="601" height="420" viewBox="0 0 601 420" fill="none" xmlns="http://www.w3.org/2000/svg">
<path d="M62.0072 290.883V0.924508C194.695 -4.65281 260.631 45.2996 289.831 117.033V371.845C204.118 297.979 154.497 276.801 62.0072 290.883Z" fill="black"/>
<path d="M0.500977 69.3346C11.2453 54.7225 19.8982 48.8571 41.296 43.6024V318.498C152.47 278.346 278.053 344.294 300.501 418.289C200.44 345.762 135.666 333.913 2.38382 371.845L0.500977 69.3346Z" fill="black"/>
<path d="M62.0072 290.883V0.924508C194.695 -4.65281 260.631 45.2996 289.831 117.033V371.845C204.118 297.979 154.497 276.801 62.0072 290.883Z" stroke="black"/>
<path d="M0.500977 69.3346C11.2453 54.7225 19.8982 48.8571 41.296 43.6024V318.498C152.47 278.346 278.053 344.294 300.501 418.289C200.44 345.762 135.666 333.913 2.38382 371.845L0.500977 69.3346Z" stroke="black"/>
<path d="M538.995 291.309V1.35029C406.307 -4.22703 340.371 45.7253 311.17 117.459V372.271C396.884 298.405 446.505 277.227 538.995 291.309Z" fill="black"/>
<path d="M600.501 69.7604C589.757 55.1482 581.104 49.2828 559.706 44.0281V318.924C448.532 278.772 322.949 344.719 300.501 418.714C400.562 346.187 465.335 334.339 598.618 372.271L600.501 69.7604Z" fill="black"/>
<path d="M538.995 291.309V1.35029C406.307 -4.22703 340.371 45.7253 311.17 117.459V372.271C396.884 298.405 446.505 277.227 538.995 291.309Z" stroke="black"/>
<path d="M600.501 69.7604C589.757 55.1482 581.104 49.2828 559.706 44.0281V318.924C448.532 278.772 322.949 344.719 300.501 418.714C400.562 346.187 465.335 334.339 598.618 372.271L600.501 69.7604Z" stroke="black"/>
</svg>
