<svg width="603" height="390" viewBox="0 0 603 390" fill="none" xmlns="http://www.w3.org/2000/svg">
<path d="M1.44336 111.206L301.122 0.532715L601.443 111.206L542.922 133.727V213.514C557.423 228.43 562.649 237.259 545.495 257.269C555.375 308.47 559.602 337.196 560.929 388.533C543.42 379.39 533.354 378.238 514.627 388.533C513.26 342.5 517.098 310.741 528.775 257.912C513.633 240.236 514.424 228.234 530.704 213.514V137.587L301.122 221.879L1.44336 111.206Z" fill="black"/>
<path d="M132.633 274.642V178.768L301.122 240.539L468.967 178.768V274.642C468.967 342.848 132.633 340.274 132.633 274.642Z" fill="black"/>
<path d="M530.704 137.587L301.122 221.879L1.44336 111.206L301.122 0.532715L601.443 111.206L542.922 133.727M530.704 137.587V213.514C514.425 228.234 513.633 240.236 528.775 257.912C517.098 310.741 513.26 342.5 514.627 388.533C533.354 378.238 543.42 379.39 560.929 388.533C559.602 337.196 555.375 308.47 545.495 257.269C562.649 237.259 557.423 228.43 542.922 213.514V133.727M530.704 137.587L542.922 133.727M132.633 178.768C132.633 178.768 132.633 209.01 132.633 274.642C132.633 340.274 468.967 342.848 468.967 274.642C468.967 206.437 468.967 178.768 468.967 178.768L301.122 240.539L132.633 178.768Z" stroke="black"/>
</svg>
