<svg width="510" height="453" viewBox="0 0 510 453" fill="none" xmlns="http://www.w3.org/2000/svg">
<path d="M193.467 0.5H99.6452L1.61314 116.61H138.738L193.467 0.5Z" fill="black"/>
<path d="M296.912 0.5H211.51L155.578 116.61H353.446L296.912 0.5Z" fill="black"/>
<path d="M410.581 0.5H315.556L370.887 116.61H508.012L410.581 0.5Z" fill="black"/>
<path d="M138.738 132.853H1.01172L233.161 436.663L138.738 132.853Z" fill="black"/>
<path d="M355.25 132.853H154.375L254.812 450.5L355.25 132.853Z" fill="black"/>
<path d="M508.012 132.853H371.489L276.464 435.46L508.012 132.853Z" fill="black"/>
<path d="M193.467 0.5H99.6452L1.61314 116.61H138.738L193.467 0.5Z" stroke="black"/>
<path d="M296.912 0.5H211.51L155.578 116.61H353.446L296.912 0.5Z" stroke="black"/>
<path d="M410.581 0.5H315.556L370.887 116.61H508.012L410.581 0.5Z" stroke="black"/>
<path d="M138.738 132.853H1.01172L233.161 436.663L138.738 132.853Z" stroke="black"/>
<path d="M355.25 132.853H154.375L254.812 450.5L355.25 132.853Z" stroke="black"/>
<path d="M508.012 132.853H371.489L276.464 435.46L508.012 132.853Z" stroke="black"/>
</svg>
