<svg width="1463" height="244" viewBox="0 0 1463 244" fill="none" xmlns="http://www.w3.org/2000/svg">
<g style="mix-blend-mode:multiply" opacity="0.63">
<path fill-rule="evenodd" clip-rule="evenodd" d="M434.381 0.926989C430.268 1.68146 416.753 2.24727 404.119 2.05866C391.486 1.87004 380.909 2.24727 380.027 3.00175C379.44 3.75622 374.739 3.56765 369.45 2.81318C364.455 1.87008 358.873 1.6816 357.11 2.24746C355.347 3.00193 350.059 3.37917 345.064 3.19055C340.363 2.81331 331.843 3.56765 326.261 4.69936C319.209 5.83108 315.096 5.83112 312.452 4.51079C309.807 3.19046 306.869 3.19041 302.168 4.69936C297.174 6.58555 296.292 6.39698 298.055 4.51079C299.818 2.81322 297.761 2.43603 289.241 3.37912C283.071 3.94498 276.901 5.45379 276.02 6.77412C274.844 7.90584 273.081 8.09459 272.2 7.1515C271.025 6.01979 230.479 5.26522 230.479 6.58555C230.479 7.15141 218.727 8.66036 215.201 8.47174C203.155 7.90588 195.81 8.09455 175.831 9.22626C154.383 10.5466 142.337 11.6783 142.337 12.2441C142.337 12.6214 118.833 14.319 107.08 14.6962C102.38 14.8849 96.5033 15.828 94.7405 16.5824C92.6838 17.5255 89.7458 17.5254 87.983 16.9596C86.5139 16.3937 79.4625 16.7709 72.705 18.0912C65.6536 19.223 57.1332 20.1662 53.3137 20.1662C49.788 20.1662 45.9685 20.9205 45.0871 21.8636C44.2057 22.8067 38.9172 23.5612 33.3348 23.5612C27.7525 23.5612 23.3454 24.3158 23.3454 25.2589C23.3454 26.3906 20.9949 26.7678 17.763 26.3905C14.5311 26.0133 9.5364 27.7108 6.01072 30.3515C-0.746844 35.2556 -1.92207 38.6507 3.07265 38.6507C4.54168 38.6507 5.4231 37.8962 4.54168 36.9531C1.89742 34.5011 8.65502 33.3695 21.2887 34.5012C27.4587 34.8785 32.1596 36.3873 32.1596 37.7076C32.1596 39.2166 36.5667 39.971 45.0871 39.7824C57.7208 39.5938 61.5403 36.7645 49.2004 36.7645C38.6233 36.7645 45.9686 34.5012 58.6023 33.7467C69.7669 33.1808 70.3545 33.3695 70.3545 38.2736V43.3662L76.2307 37.1419C79.4626 33.7468 83.5759 31.4832 85.0449 32.0491C86.8077 32.6149 87.983 31.8605 87.983 30.1629C87.983 28.4653 89.452 27.7108 90.921 28.2767C92.6839 29.0312 93.2715 30.3515 92.3901 31.2946C91.2148 32.2377 94.7405 32.9922 99.4414 32.9922C104.73 32.9922 108.549 32.0492 108.549 30.5403C108.549 29.0313 109.725 29.2198 111.488 31.106C112.957 32.6149 114.426 32.9922 114.426 31.8605C114.426 30.7288 116.482 29.7857 118.833 29.7857C121.183 29.7857 123.24 30.5403 123.24 31.4834C123.24 32.4265 125.59 32.4265 128.528 31.4834C131.173 30.5403 139.105 30.163 146.157 30.5403C153.208 30.9175 160.847 30.3515 162.904 29.2198C165.842 27.7108 167.017 27.711 167.898 29.5972C169.074 31.4834 171.424 31.4833 179.945 29.7857C189.346 27.8996 190.815 28.0882 190.815 30.7288C191.109 33.5581 191.403 33.5582 194.929 30.5403C197.279 28.6541 199.923 27.8996 200.805 28.8427C203.155 31.2947 199.923 36.7645 196.398 36.7645C194.929 36.7645 193.754 37.5191 193.754 38.2736C193.754 39.0281 198.161 39.4054 203.743 39.0281C212.557 38.2736 213.732 37.7076 213.439 33.1807C212.851 28.8425 214.026 28.2768 224.016 27.711C230.773 27.3337 234.887 27.8995 234.887 29.2198C234.887 30.5401 233.124 31.1061 230.773 30.5403C227.835 29.7858 227.247 30.7288 228.129 33.5581C229.304 36.7646 229.01 37.1418 226.366 34.8784C223.134 31.8605 218.433 33.3695 221.665 36.576C224.016 39.2166 231.948 39.2166 231.948 36.7645C231.948 35.6328 233.417 34.8784 234.887 34.8784C236.649 34.8784 237.531 36.0102 237.237 37.1419C236.649 38.4623 238.412 39.2165 240.763 38.8393C243.113 38.4621 251.046 37.8963 258.391 37.5191C265.736 36.9532 274.844 36.3875 278.958 36.1988C284.54 35.8216 286.009 34.8784 285.421 32.0491C284.834 29.7857 285.421 29.0311 286.89 30.3515C292.473 35.4442 314.214 38.6508 314.214 34.5012C314.214 32.8036 310.395 32.4263 300.405 32.9922C295.998 33.1808 293.648 32.2378 293.648 30.5403C293.648 28.8427 292.766 27.3337 291.591 26.7679C290.122 26.3907 291.297 26.3907 293.648 26.7679C310.689 29.7858 315.096 29.7858 313.333 26.7679C312.158 24.6931 312.745 24.1272 315.977 24.8817C318.034 25.4476 320.09 26.5791 320.09 27.5222C320.09 28.4653 323.91 29.2198 328.611 29.2198C333.312 29.2198 338.6 30.5401 340.657 32.0491C342.714 33.7466 346.239 34.6897 348.59 34.1238C350.646 33.558 352.409 33.9353 352.409 34.6898C352.409 36.9532 362.105 36.0102 363.28 33.5581C363.868 32.615 359.755 32.049 353.585 32.2377C344.77 32.8035 343.595 32.4263 346.533 30.1629C348.296 28.8426 352.997 27.8994 356.816 28.4653C360.636 28.8425 364.749 28.4653 365.631 27.3336C366.806 26.2019 369.156 26.0134 370.919 26.7679C372.976 27.711 376.795 28.2767 380.027 28.2767C387.666 28.2767 393.542 34.3126 387.96 36.576C385.316 37.7077 386.785 38.4623 392.955 39.0281L401.769 39.7824L394.718 33.9353C386.197 26.5791 385.903 25.4474 393.836 25.4474C398.831 25.4474 399.712 26.3905 398.537 30.1629C397.656 34.1239 398.831 35.6328 405.588 37.7076C411.758 39.7824 413.815 39.9712 414.99 38.085C415.872 36.3875 417.928 36.3873 424.098 38.6507C430.562 40.7255 432.619 40.9141 434.381 38.8393C435.851 37.519 437.907 36.576 439.376 36.576C443.783 36.9532 442.314 32.4265 437.613 31.4834C435.263 30.9175 434.088 31.2946 435.263 32.0491C437.907 33.7466 432.619 38.6507 428.211 38.6507C426.449 38.6507 425.861 37.3304 427.036 35.8215C428.212 33.7466 426.742 32.9922 421.454 32.9922C411.758 32.9922 412.052 30.3515 421.748 27.5222C428.505 25.636 429.387 25.8247 427.624 28.2767C426.449 30.5401 427.624 30.9174 433.206 29.9743C437.613 29.2198 442.608 29.7856 445.546 31.2946C449.072 33.1807 449.953 33.1809 448.19 31.4834C443.783 26.9565 450.541 29.4086 458.18 35.2557C464.056 39.7826 466.7 40.5369 468.463 38.6507C469.932 37.1418 469.638 36.576 467.875 37.3305C466.113 38.085 464.056 36.9532 463.175 34.8784C461.999 32.0491 463.468 30.7288 468.757 29.9743C477.277 28.654 481.978 30.5401 475.808 32.9922C473.458 33.9353 472.283 35.2556 473.164 35.8215C476.102 37.519 484.622 34.6898 484.622 31.8605C484.622 28.654 491.086 28.4655 495.787 31.4834C498.138 32.9923 499.313 32.9923 499.313 31.6719C499.313 30.7288 502.838 29.9742 507.539 30.3515C517.529 31.1059 526.343 29.4085 524.286 27.145C523.111 26.2019 524.58 25.4474 526.931 25.4474C529.869 25.4474 531.632 27.1449 531.632 29.4084C531.632 32.4263 530.163 33.1809 526.049 32.4265C522.524 31.8606 519.586 32.6151 518.704 34.3126C516.354 38.2736 516.06 38.2736 524.58 37.1419C530.163 36.5761 531.925 36.9532 530.456 38.4622C529.281 39.5939 529.869 40.5369 531.338 40.5369C533.101 40.5369 534.57 39.5939 534.57 38.4622C534.57 37.1418 537.508 36.7647 541.915 37.1419C546.028 37.7078 550.142 37.3305 551.023 36.576C551.904 35.6329 548.379 34.8784 543.678 34.8784C538.683 34.8784 534.57 33.9353 534.57 32.9922C534.57 31.8605 536.626 31.106 538.977 31.106C541.327 31.106 543.384 29.9744 543.384 28.6541C543.678 27.1451 544.559 27.3336 547.203 29.2198C551.023 32.2377 575.703 33.7466 575.703 31.106C575.703 29.4084 593.037 30.1629 595.681 32.0491C596.563 32.6149 592.45 32.9922 586.574 32.9922C576.878 32.9922 575.703 33.558 576.29 37.7076C576.878 41.6686 577.465 41.8572 581.579 39.7824C583.929 38.2735 589.218 36.5759 593.331 35.8215C600.089 34.5011 600.382 34.5011 596.269 37.7076C592.156 40.9142 592.45 41.1029 598.62 40.1598C602.145 39.4053 605.083 39.5938 605.083 40.5369C605.083 43.1776 614.485 44.4979 618.599 42.4231C620.655 41.2914 626.825 40.1598 632.114 40.1598C644.16 39.9712 647.979 38.6508 642.985 36.576C639.753 35.2556 640.046 34.8784 644.16 34.8784C647.098 34.8784 648.861 34.1238 647.979 33.1807C647.098 32.2377 650.623 31.1059 655.618 30.3515C661.494 29.597 665.608 29.9742 667.077 31.2946C668.252 32.6149 671.19 32.9923 673.834 32.4265C676.479 31.672 678.535 32.049 678.535 33.1807C678.535 34.3125 680.592 34.6897 682.942 34.1238C685.293 33.558 689.406 32.4264 692.344 31.6719C695.282 30.9175 696.457 31.2947 695.282 32.4265C694.107 33.5582 695.282 35.067 697.926 35.6329C700.277 36.1987 701.452 36.01 700.571 35.0669C699.689 34.1238 703.509 33.3695 709.091 33.5581C714.673 33.7467 718.493 34.5013 717.611 35.2557C717.024 36.1988 719.08 36.7645 722.606 36.7645C726.426 36.7645 728.189 36.0101 726.72 34.6898C725.544 33.3695 727.601 33.558 731.714 35.0669C739.647 37.7076 748.755 38.2736 754.337 36.1988C756.1 35.2557 760.507 35.6328 763.739 36.7645C767.559 38.0849 769.615 38.0849 769.615 36.7645C769.615 35.8215 773.141 34.8784 777.842 34.8784C782.249 34.8784 784.306 35.6329 782.543 36.3874C779.899 37.3305 780.192 38.4622 783.131 40.1598C786.656 42.046 787.244 42.0459 787.244 39.5938C787.244 36.3873 791.945 35.6328 793.708 38.6507C794.883 40.9142 816.624 42.8003 816.624 40.7255C816.624 38.4621 828.671 39.5939 831.315 42.2345C832.784 43.7435 836.016 44.3093 840.129 43.3662C843.655 42.6117 850.706 41.8572 855.407 41.6686C863.34 41.2914 863.634 41.4802 858.933 43.7436C852.763 46.7615 853.35 46.7613 866.278 44.3093C874.504 42.8003 877.149 43.1777 880.381 45.8183C883.319 48.459 883.906 48.459 882.731 46.0069C881.556 44.1207 882.731 42.9891 885.375 42.9891C887.726 42.9891 889.195 43.7436 888.313 44.6867C887.432 45.4411 888.901 46.1955 891.252 46.1955C893.896 46.1955 895.952 46.7615 895.952 47.516C895.952 49.7794 911.23 49.7793 917.988 47.7045C921.22 46.5728 922.983 46.3841 921.807 47.1386C920.632 47.8931 922.689 50.1564 926.214 52.0426L932.678 55.4379L926.214 54.3062C922.395 53.7403 917.106 53.9289 914.462 54.4948C910.055 55.6265 910.055 56.0037 913.581 57.5126C915.931 58.4557 920.338 58.833 923.57 58.2671C927.096 57.5127 928.271 57.8899 927.096 59.2102C924.746 61.4736 929.153 61.8509 939.436 60.1533C947.369 58.6444 947.956 55.6264 940.023 56.5695C936.792 56.9468 934.735 56.5695 935.616 55.6264C936.498 54.6833 940.611 53.929 944.431 54.1176C948.25 54.3062 950.601 55.2493 950.013 56.0038C949.131 56.7583 950.894 57.5126 953.539 57.5126C956.477 57.5126 957.946 58.0784 956.77 58.6443C954.714 60.1532 964.116 66.9436 966.76 65.8119C968.229 65.4346 968.523 63.5485 967.641 61.6624C966.172 59.0217 966.466 59.0216 968.816 61.285C970.579 62.7939 971.461 64.4915 970.579 65.2459C968.817 67.3207 994.084 68.4526 998.197 66.3778C1000.55 65.0575 1001.72 65.4346 1001.72 67.6981C1001.72 69.9615 1004.66 70.7159 1014.36 70.9045C1025.82 71.0931 1026.11 71.0932 1018.47 72.6021C1013.77 73.5452 1008.19 73.7339 1006.13 73.3566C1004.07 72.7908 999.373 73.3566 996.141 74.4883C992.615 75.62 988.208 75.9973 986.445 75.2428C980.275 72.7908 956.477 72.4134 947.956 74.6769C942.08 76.3744 939.142 76.3744 935.91 74.6769C933.56 73.3565 930.915 73.1681 930.034 74.1112C928.271 75.9973 919.457 75.8086 914.168 73.7338C912.112 72.9793 910.643 73.3566 910.643 74.4883C910.643 75.8086 904.767 76.1859 892.427 75.2428C882.143 74.4883 871.273 74.1112 868.041 74.1112C833.665 75.2429 822.501 75.2428 822.501 74.2997C822.501 73.7339 816.624 73.7338 809.279 74.4883C802.228 75.2428 795.764 75.0542 795.47 74.1112C794.883 73.1681 790.77 73.168 786.069 74.4883C780.78 75.62 776.373 75.8086 774.316 74.6769C772.553 73.7338 765.796 73.5452 759.332 74.2997C752.868 75.0542 717.905 75.62 681.473 75.4314C645.041 75.2428 611.841 75.62 607.728 76.5631C603.027 77.3175 598.62 77.1291 596.563 75.8088C594.506 74.4884 592.45 74.4884 589.805 75.8088C587.749 76.7519 579.522 77.3176 571.589 77.129C563.657 76.7518 555.43 77.3175 553.373 78.4492C550.729 79.7696 547.791 79.7696 543.678 78.2607C539.271 76.9403 519.879 76.5631 480.803 77.3176C394.13 79.0151 324.791 81.2787 320.972 82.4104C319.797 82.7877 312.158 82.9761 303.931 82.9761C295.705 82.9761 288.359 83.7306 287.184 84.8623C285.715 85.994 284.834 85.9941 284.834 84.4852C284.834 82.9762 279.839 82.5989 269.556 83.1647C231.067 85.0509 199.336 86.1827 179.945 86.3714C168.486 86.56 158.203 87.3145 157.028 88.069C155.852 88.8235 153.502 89.012 151.445 88.4461C149.389 87.8803 145.275 89.2006 142.337 91.464C139.399 93.5388 135.58 95.2364 133.523 95.2364C128.822 95.2364 117.364 101.649 117.364 104.29C117.364 105.422 119.714 107.308 122.652 108.251C125.59 109.571 126.472 110.892 124.709 111.646C121.183 113.533 120.008 120.134 123.534 118.625C125.003 118.059 126.178 118.437 126.178 119.568C126.178 120.511 124.709 121.643 122.946 122.02C120.302 122.586 120.302 123.906 122.946 126.924C125.59 130.32 128.822 131.074 138.812 130.885C145.569 130.885 155.852 131.64 161.435 132.772C174.656 135.412 188.171 135.601 182.001 132.96C178.182 131.451 178.476 131.074 182.883 131.074C185.527 131.074 187.877 132.017 187.877 133.149C187.877 134.28 190.522 134.658 193.754 133.903C197.279 133.149 199.63 133.526 199.63 135.035C199.63 136.544 201.099 136.355 204.624 134.658C208.444 132.583 209.619 132.583 210.794 134.469C211.676 136.355 212.851 136.355 216.377 134.658C218.727 133.337 220.196 133.149 219.902 134.092C218.727 138.053 220.49 138.996 224.603 136.732C228.129 134.846 229.01 134.846 229.01 136.921C229.01 138.43 230.773 137.864 233.417 135.601C236.16 133.212 237.629 133.212 237.825 135.601C237.825 137.676 238.706 138.619 239.881 138.053C240.763 137.298 243.113 137.487 245.17 138.619C246.933 139.562 253.396 140.505 259.272 140.882C265.442 141.071 270.143 142.202 270.143 143.523C270.143 144.843 267.793 145.409 263.973 144.843C258.391 143.9 258.097 144.466 258.979 156.16C259.566 162.951 261.035 168.043 262.211 167.477C263.386 167.1 263.68 168.798 262.504 171.25C259.86 178.795 263.386 183.887 271.025 182.567C288.947 179.738 292.473 179.926 298.643 183.699C307.457 188.98 311.57 188.603 310.101 182.944C308.926 178.794 309.807 178.229 317.152 178.229C321.853 178.229 327.729 177.663 330.374 176.908C334.781 175.965 335.075 176.342 331.843 180.303C328.905 183.51 328.905 184.83 331.549 185.396C333.312 185.773 334.193 186.716 333.606 187.471C332.724 188.225 333.606 188.98 335.662 188.98C337.719 188.98 343.301 189.734 348.59 190.3C353.878 190.866 358.873 190.677 359.754 189.546C360.636 188.603 363.868 187.66 366.512 187.66C370.919 187.66 370.919 188.037 367.1 189.734C363.574 191.432 363.574 191.62 367.981 190.677C370.919 190.112 374.739 189.546 376.208 189.546C377.971 189.546 378.264 188.603 377.383 187.66C376.501 186.528 376.795 185.773 377.971 185.773C379.44 185.773 381.79 187.282 383.847 189.169C385.903 191.432 390.898 192.752 396.187 192.941C401.181 192.941 404.707 192.375 403.825 191.432C402.944 190.489 403.532 189.357 405.295 188.603C406.764 188.037 408.233 188.791 408.233 190.3C408.233 191.998 410.289 193.318 412.64 193.318C415.284 193.318 416.165 192.186 414.99 190.112C413.521 187.66 414.403 187.282 418.222 188.225C421.16 188.98 423.804 189.546 424.686 189.546C425.274 189.546 424.98 190.866 424.098 192.375C422.923 193.884 423.804 195.204 425.567 195.204C427.33 195.204 428.799 194.261 428.799 193.318C428.799 192.186 432.619 191.432 437.32 191.432C442.314 191.432 447.015 190.489 447.897 189.546C450.541 186.716 455.242 189.168 453.185 192.375C452.304 194.45 453.773 195.204 458.474 195.204C464.056 195.204 464.644 194.827 461.118 193.318C458.767 192.375 457.886 191.055 458.767 190.3C459.943 189.546 457.592 187.471 453.773 185.396C443.783 180.492 444.665 178.795 456.711 178.983C463.762 179.172 466.7 179.926 465.525 181.435C464.937 182.756 465.525 183.887 466.994 183.887C468.463 183.887 470.226 182.378 470.813 180.492C471.989 177.474 472.283 177.474 472.576 180.492C472.87 182.756 475.514 183.887 481.097 184.076C488.736 184.076 488.736 184.264 482.566 185.773C478.159 186.905 476.396 188.603 477.571 190.489C479.04 192.564 478.159 193.13 474.633 192.186C471.695 191.432 470.226 189.734 471.107 188.414C471.989 186.905 470.814 185.773 468.757 185.773C466.407 185.773 465.231 187.282 466.113 190.112C467.288 193.507 469.638 194.45 478.159 194.827C484.035 195.204 493.437 195.77 498.725 196.147C505.777 196.713 509.008 196.147 510.184 193.884C511.947 191.243 512.534 191.243 516.06 194.261C519.292 197.279 525.168 197.845 562.481 198.222C595.682 198.411 605.671 198.034 608.315 195.959C610.96 193.884 610.666 193.318 606.846 193.318C604.202 193.318 602.145 192.375 602.145 191.432C602.145 188.791 605.965 189.168 612.722 192.375C620.655 196.147 628 195.77 630.057 191.62C631.232 189.168 633.583 188.226 636.227 188.98C638.871 189.546 640.34 188.98 639.753 187.471C639.165 185.962 641.809 184.83 646.216 184.453L653.562 184.076L646.216 185.396C641.222 186.339 640.046 187.282 642.691 188.414C644.453 189.169 647.685 189.169 649.742 188.414C651.799 187.66 652.093 187.848 650.917 189.169C649.742 190.489 644.747 191.432 639.459 191.432C631.526 191.432 630.938 191.809 634.464 194.073C636.815 195.582 643.866 198.034 650.036 199.731C659.731 202.183 661.494 202.183 662.963 199.92C663.845 198.411 666.195 197.09 668.546 197.09C670.602 197.09 671.778 198.222 670.896 199.543C670.015 201.24 672.953 202.183 680.298 202.372C690.287 202.938 690.875 202.56 687.056 199.731C683.236 196.713 683.53 196.525 689.7 197.468C693.225 198.222 696.164 197.845 696.164 196.525C696.164 195.393 697.045 195.204 698.22 195.77C700.864 197.656 708.21 193.318 706.153 191.055C704.978 189.923 706.741 189.546 710.56 190.489C714.086 191.243 716.73 190.866 716.73 189.734C716.73 188.603 718.787 187.66 721.137 187.66C723.488 187.66 725.544 188.414 725.544 189.169C725.544 189.923 729.07 190.489 733.771 190.3C738.472 190.3 743.76 191.621 746.992 193.884C752.574 198.034 753.456 200.863 749.049 200.863C747.58 200.863 746.405 199.731 746.992 198.411C747.286 197.279 745.523 196.147 743.173 196.147C740.822 196.147 737.297 195.393 735.534 194.827C733.771 194.073 732.302 194.638 732.302 196.147C732.302 197.656 734.652 198.977 737.59 198.977C740.529 198.977 743.76 199.731 744.642 200.863C745.523 201.806 749.343 202.372 752.868 201.995C756.394 201.429 760.801 201.051 762.858 201.051C764.914 200.863 765.796 199.543 764.914 198.034C763.739 196.525 761.976 195.582 760.801 196.147C759.626 196.713 757.863 195.959 756.982 194.639C756.1 192.941 758.157 192.375 764.033 192.564C770.203 192.752 772.553 191.998 772.847 189.923C772.847 188.037 773.729 187.66 774.316 188.98C775.198 190.3 777.548 190.866 779.605 190.3C781.955 189.734 784.306 190.677 785.481 192.375C786.362 194.073 788.419 195.016 790.182 194.261C791.651 193.695 795.47 194.073 798.702 195.016C802.522 196.336 804.578 196.525 805.46 195.204C807.223 191.432 825.145 195.393 826.32 199.731C827.201 202.938 827.789 202.749 828.083 198.6C828.377 195.204 829.552 193.695 832.196 194.45C834.84 195.016 835.722 197.468 834.841 200.863C833.665 205.578 834.547 206.521 839.835 206.521C847.474 206.521 847.474 205.767 841.01 201.617C836.016 198.411 836.016 198.222 841.304 199.543C845.418 200.486 846.299 200.297 844.83 198.034C843.655 195.959 845.124 195.204 850.412 195.204C854.526 195.204 857.757 196.147 857.757 197.279C857.757 198.411 855.701 198.788 853.057 198.222C850.412 197.468 848.943 198.034 849.531 199.165C851 202.183 865.984 203.126 868.335 200.486C869.51 199.165 868.922 198.977 867.159 199.731C864.809 200.674 863.634 199.543 863.634 197.09C863.634 194.261 865.103 193.318 867.747 193.884C870.097 194.45 872.742 194.073 873.329 192.752C874.211 191.055 875.68 191.243 879.499 193.13C883.906 195.582 885.082 195.582 887.432 193.13C889.783 190.866 890.37 190.866 893.014 193.318C894.483 194.827 895.952 195.204 895.952 194.261C895.952 193.129 898.009 193.884 900.066 195.77C902.416 197.656 903.591 200.863 902.71 202.749C901.828 204.824 902.71 206.521 904.473 206.521C906.236 206.521 907.705 205.767 907.705 204.824C907.705 203.692 910.349 203.126 913.287 203.315C916.519 203.315 918.282 204.447 917.4 205.956C916.519 207.276 917.4 208.408 919.163 208.408C920.926 208.408 922.395 207.465 922.395 206.521C922.395 205.39 925.039 204.635 928.565 204.635C931.797 204.635 933.56 205.39 932.678 206.521C931.797 207.465 932.091 208.408 933.854 208.408C935.323 208.408 937.085 207.276 937.967 205.956C939.142 204.07 940.024 204.07 943.255 205.956C947.956 208.974 952.951 209.162 950.013 206.144C948.544 204.635 949.425 204.447 953.539 205.578C964.997 208.596 972.93 208.973 975.574 206.333C977.631 204.447 978.806 204.258 980.569 205.767C981.744 207.276 990.558 207.842 1004.07 207.653C1015.53 207.464 1025.23 208.03 1025.23 208.974C1025.23 209.728 1026.7 209.917 1028.17 209.351C1029.93 208.596 1030.52 207.276 1029.63 206.333C1027.28 203.881 1032.28 204.258 1036.1 206.71C1040.51 209.539 1046.38 208.219 1043.15 205.013C1041.97 203.692 1036.98 202.183 1032.28 201.806C1027.58 201.429 1023.17 201.051 1022.29 201.051C1021.41 200.863 1022.58 200.108 1024.93 199.165C1027.58 198.034 1031.98 198.222 1036.39 199.165C1040.51 200.108 1046.09 200.486 1049.03 199.92C1053.14 198.977 1055.49 199.92 1057.55 203.126C1059.5 205.893 1060.19 205.641 1059.6 202.372C1059.02 199.543 1059.6 197.656 1060.78 198.222C1062.25 198.788 1063.42 197.656 1063.42 195.959C1063.42 192.941 1063.72 192.941 1069 195.959C1072.82 198.034 1079.58 199.354 1088.1 199.354C1099.85 199.354 1101.62 199.92 1101.62 203.126C1101.62 205.767 1103.09 206.521 1106.32 205.767C1108.96 205.201 1111.31 204.635 1112.19 204.635C1112.78 204.635 1112.49 203.503 1111.61 201.995C1109.84 198.977 1118.36 196.336 1121.01 199.165C1121.89 200.297 1126.3 200.674 1130.7 199.92C1135.7 199.165 1137.46 199.354 1135.41 200.674C1133.94 201.617 1128.65 202.749 1123.65 203.315C1118.66 203.692 1121.89 204.258 1131.59 204.447C1141.58 204.447 1149.21 203.692 1150.39 202.372C1151.86 201.052 1150.39 200.674 1146.28 201.24C1142.46 201.995 1140.69 201.617 1141.58 200.108C1142.16 198.977 1147.16 197.845 1152.45 197.656C1173.01 197.091 1181.24 195.959 1184.18 193.318C1186.53 190.866 1187.41 190.866 1190.93 193.695C1195.05 197.279 1205.92 198.222 1208.86 195.204C1209.74 194.261 1212.38 193.884 1214.73 194.639C1217.67 195.204 1219.14 194.261 1219.14 191.62C1219.14 188.603 1217.67 187.848 1212.68 188.414C1208.86 188.791 1204.74 188.414 1202.98 187.66C1200.34 186.339 1188.58 185.019 1163.32 182.944C1159.2 182.567 1150.1 181.812 1142.75 181.058C1092.8 176.531 1040.8 173.136 1014.36 172.759C1010.24 172.57 1007.6 171.438 1007.6 169.741C1007.6 168.232 1006.42 166.911 1004.95 166.911C1003.49 166.911 1001.43 165.591 1000.55 163.894C999.666 162.385 999.96 161.63 1001.72 162.196C1003.19 162.762 1005.25 161.064 1006.42 158.424C1007.31 155.972 1009.36 154.274 1010.83 154.651C1012.01 155.217 1014.94 154.085 1017 151.822C1019.06 149.747 1021.7 148.05 1023.17 148.05C1027.87 148.05 1060.48 137.864 1060.48 136.355C1060.48 135.601 1059.31 134.846 1057.84 134.846C1056.37 134.846 1054.61 133.149 1053.73 131.262C1052.85 129.188 1047.26 126.17 1041.09 124.472C1031.4 121.832 1030.52 121.077 1034.63 119.568C1037.27 118.625 1049.03 118.248 1060.78 118.814C1074.88 119.38 1083.7 118.814 1086.34 117.493C1089.57 115.796 1091.04 115.796 1092.8 118.059C1094.86 120.323 1102.79 120.889 1128.94 121.454C1147.16 121.643 1167.14 122.209 1173.01 122.586C1180.95 122.963 1183.88 122.397 1184.76 119.945C1185.94 117.305 1186.23 117.305 1186.53 120.134C1186.82 122.775 1189.76 123.152 1202.98 122.963C1211.79 122.775 1219.14 123.152 1219.14 123.907C1219.14 125.793 1245.88 125.793 1250.58 123.907C1252.93 122.963 1253.22 121.454 1251.46 119.757C1247.05 115.419 1247.93 114.098 1254.4 114.098C1257.63 114.098 1260.27 115.041 1260.27 116.173C1260.27 117.116 1259.1 117.493 1257.34 116.928C1253.81 115.419 1253.52 117.871 1257.04 121.454C1260.27 124.85 1275.84 126.17 1273.2 122.963C1272.32 121.643 1273.2 122.02 1275.55 123.529C1279.96 126.924 1298.47 128.433 1298.47 125.415C1298.47 124.472 1301.99 123.529 1306.69 123.718C1313.45 123.718 1313.75 124.095 1309.05 125.227C1303.76 126.547 1303.76 126.736 1308.46 127.867C1311.4 128.622 1316.1 128.245 1319.03 127.302C1321.97 126.358 1326.67 125.981 1329.02 126.547C1331.96 127.301 1333.72 126.736 1333.72 125.227C1333.72 123.152 1334.31 122.963 1336.37 125.038C1337.54 126.359 1339.89 127.302 1341.36 127.113C1342.83 126.924 1344.6 127.113 1345.48 127.302C1346.36 127.49 1352.53 127.867 1359.58 128.245C1369.28 128.622 1371.92 128.245 1372.21 125.793C1372.21 123.152 1372.51 122.963 1374.27 125.415C1376.62 128.81 1387.2 129.188 1388.96 125.793C1389.55 124.661 1392.19 123.529 1394.54 123.529C1398.07 123.529 1398.36 124.095 1395.72 125.981C1393.07 128.056 1394.25 128.622 1401.59 128.811C1410.11 128.999 1410.41 128.622 1408.35 122.963C1407.47 119.568 1405.41 116.739 1403.94 116.362C1400.13 115.419 1408.94 110.326 1413.93 110.326C1416.28 110.326 1418.93 109.194 1419.81 107.874C1421.28 105.422 1433.33 101.083 1452.13 96.368C1458.01 94.8591 1463 92.7843 1463 91.6526C1463 88.6347 1449.48 80.1469 1444.78 80.1469C1442.43 80.1469 1439.5 79.3923 1438.03 78.4492C1436.26 77.3175 1431.27 76.1858 1426.86 75.62C1419.52 74.8655 1379.56 67.8866 1355.76 63.3597C1347.24 61.6622 1323.74 58.6443 1317.57 58.4557C1316.1 58.4557 1313.45 57.8899 1311.69 57.324C1310.22 56.5696 1303.46 55.4378 1297 54.6833C1290.54 53.7402 1284.07 52.9858 1282.31 52.7971C1274.38 51.6654 1229.13 45.6296 1226.49 45.441C1225.02 45.2523 1222.37 44.6866 1220.61 44.1207C1219.14 43.3663 1215.03 43.1775 1212.09 43.5548C1208.86 43.7434 1204.16 43.3662 1201.81 42.4231C1199.16 41.6686 1193.29 40.3483 1188.29 39.7824C1183.59 39.2165 1173.01 37.8963 1164.79 36.7645C1156.85 35.8215 1142.75 34.6897 1133.94 34.1238C1125.12 33.7466 1111.31 32.4263 1103.09 31.2946C1065.19 26.2019 1012.59 21.2979 984.094 20.5434C973.517 20.3548 964.997 19.9775 964.997 19.7889C964.997 19.223 952.951 17.9027 936.498 16.771C923.276 15.8279 919.457 16.2051 919.457 18.0912C919.457 20.1661 918.869 20.1662 917.106 18.2801C913.875 15.2622 905.942 14.1303 878.324 13.1872C866.278 12.81 853.057 11.8668 848.943 11.4896C844.83 10.9237 828.964 9.98069 813.686 9.41483C798.408 8.84898 779.311 7.90602 771.084 6.96293C763.152 6.20845 748.167 5.64246 738.178 5.64246C728.188 5.64246 719.668 4.88812 719.668 4.13365C719.668 3.37917 717.024 3.56765 714.086 4.69936C707.035 6.96279 704.096 7.15155 706.153 5.07674C707.034 4.13365 702.04 3.37912 695.282 3.37912C688.525 3.37912 672.953 2.81331 660.907 2.24746C632.995 0.738509 610.078 0.549798 593.919 1.68151C587.161 2.24737 581.873 2.05884 582.754 1.30436C584.517 -0.581823 566.007 -0.393296 561.306 1.68151C558.662 2.81322 556.605 2.81322 556.018 1.68151C555.43 0.738416 542.209 0.172652 526.637 0.361271C510.771 0.54989 486.385 0.73837 472.283 0.926989C458.18 1.11561 445.546 0.927127 444.371 0.361271C443.196 -0.0159663 438.495 0.172514 434.381 0.926989ZM151.151 25.4474C152.033 26.5791 150.858 26.7678 148.507 26.2019C143.219 24.8816 142.337 23.5612 146.451 23.5612C148.213 23.5612 150.27 24.3157 151.151 25.4474ZM246.639 31.2946C246.639 32.2377 244.288 32.9922 241.644 32.8036C238.412 32.8036 237.825 32.2378 240.175 31.6719C241.938 31.2947 242.819 29.7857 241.938 28.8427C240.763 27.5223 241.35 27.3337 243.113 28.0881C245.17 28.8426 246.639 30.1628 246.639 31.2946ZM267.499 31.106C267.499 32.9922 268.381 32.6149 270.143 30.1629C272.494 26.5791 272.788 26.5791 272.788 30.3515C273.081 32.9921 270.731 34.8784 266.618 35.6329C256.922 37.1418 251.927 36.9531 253.69 35.0669C254.865 34.1238 253.984 32.9923 251.927 32.615C246.051 31.2947 252.221 27.7109 259.86 28.0881C264.267 28.0881 267.205 29.4084 267.499 31.106ZM280.427 29.2198C281.308 30.1629 280.72 31.106 279.251 31.106C277.488 31.106 276.02 30.1629 276.02 29.2198C276.02 28.0881 276.607 27.3336 277.195 27.3336C278.076 27.3336 279.545 28.0881 280.427 29.2198ZM608.609 29.0312C605.377 30.1629 606.259 31.4833 612.135 34.5012C618.305 37.5191 618.892 38.4622 615.073 39.4053C612.722 39.9711 611.547 39.7824 612.429 38.8393C613.31 37.8962 611.253 36.5759 608.021 35.8215C599.501 34.1239 600.676 27.3336 609.197 27.3336C610.96 27.3336 610.666 28.0881 608.609 29.0312ZM624.181 32.9922C625.062 33.9353 624.769 34.8784 623.006 34.8784C621.537 34.8784 619.186 33.9353 618.305 32.9922C617.423 31.8605 617.717 31.106 619.48 31.106C620.949 31.106 623.299 31.8605 624.181 32.9922ZM634.758 35.4443C631.82 37.1419 631.526 36.9533 633.289 34.3126C634.17 32.4265 635.933 31.4832 636.814 32.0491C637.696 32.6149 636.815 34.124 634.758 35.4443ZM412.64 34.8784C413.521 35.8215 413.227 36.7645 411.465 36.7645C409.996 36.7645 407.645 35.8215 406.764 34.8784C405.882 33.7466 406.176 32.9922 407.939 32.9922C409.408 32.9922 411.758 33.7466 412.64 34.8784ZM985.564 54.8719C989.383 55.815 989.677 56.3809 986.445 57.7012C980.569 60.1532 975.28 59.776 975.28 56.5695C975.28 53.5516 977.925 52.9857 985.564 54.8719ZM1027.28 59.9647C1025.82 62.9826 1009.66 62.6053 1008.19 59.5874C1007.31 58.0784 1008.19 57.5127 1009.95 58.2671C1011.71 58.833 1013.77 58.6443 1014.65 57.7012C1017 55.4378 1028.75 57.5127 1027.28 59.9647ZM1056.66 59.7762C1055.78 61.2851 1054.9 60.7191 1054.9 58.6443C1054.61 56.5695 1055.49 55.4379 1056.37 56.1924C1057.25 56.7582 1057.55 58.4558 1056.66 59.7762ZM1045.79 62.0395C1053.14 63.5485 1057.84 65.0573 1056.08 65.2459C1046.38 66.3776 1039.62 66.1892 1038.16 64.6802C1037.27 63.9257 1035.22 63.5484 1033.75 64.1143C1032.28 64.8687 1031.1 63.9256 1031.1 62.4167C1031.1 60.7191 1031.4 59.3988 1031.98 59.3988C1032.28 59.3988 1038.45 60.7192 1045.79 62.0395ZM722.606 100.895C722.606 98.8201 723.488 98.8202 726.132 100.518C731.714 104.102 725.251 107.119 716.436 104.856C712.617 103.913 710.854 102.97 712.911 102.97C714.967 102.781 715.849 101.461 714.673 99.3861C713.204 96.7454 713.792 96.9339 717.611 99.9518C721.137 102.592 722.312 102.97 722.606 100.895ZM665.314 100.895C666.195 101.838 665.608 102.781 664.139 102.781C662.376 102.781 660.907 101.838 660.907 100.895C660.907 99.7632 661.494 99.0087 662.082 99.0087C662.963 99.0087 664.432 99.7632 665.314 100.895ZM803.403 103.158C807.516 104.29 810.748 105.988 810.748 106.742C810.748 108.44 776.373 107.685 773.435 105.988C771.672 104.856 776.667 103.913 782.249 104.479C783.424 104.479 784.306 103.724 784.306 102.781C784.306 100.329 794.001 100.329 803.403 103.158ZM843.948 104.479C853.644 108.44 849.825 111.835 839.835 108.251C835.722 106.931 834.253 106.931 835.428 108.251C836.603 109.383 833.665 109.949 826.32 109.571C820.444 109.194 814.862 107.874 814.274 106.742C813.393 104.856 819.269 103.724 827.789 104.479C829.552 104.667 831.315 103.913 831.315 102.781C831.315 99.9518 834.547 100.518 843.948 104.479ZM753.456 106.553C752.574 107.497 749.343 107.685 745.817 107.119C741.41 106.365 740.822 105.61 743.467 104.667C747.874 102.781 755.513 104.479 753.456 106.553ZM869.51 104.856C869.51 105.988 871.86 106.365 875.092 105.61C879.499 104.667 880.674 105.422 880.381 108.251C880.087 110.892 878.912 111.458 876.561 110.137C874.505 109.194 869.51 108.817 865.103 109.571C857.757 110.703 857.464 110.514 860.402 106.742C863.927 102.592 869.51 101.272 869.51 104.856ZM938.261 105.422C937.085 107.497 938.554 107.874 946.487 106.742C951.776 105.988 959.415 105.988 963.528 106.742L970.873 108.063L962.94 108.251C958.239 108.44 954.714 109.383 954.714 110.514C954.714 112.023 953.245 112.023 950.307 110.326C946.781 108.44 945.018 108.44 941.786 110.137C938.848 111.835 937.085 111.835 935.616 110.326C933.56 108.251 935.616 102.781 938.261 102.781C939.142 102.781 939.142 103.913 938.261 105.422ZM769.615 106.553C769.615 107.497 769.028 108.44 768.44 108.44C767.559 108.44 766.09 107.497 765.208 106.553C764.327 105.422 764.914 104.667 766.383 104.667C768.146 104.667 769.615 105.422 769.615 106.553ZM911.524 106.931C915.05 108.251 921.22 109.006 925.333 108.817C932.384 108.251 932.385 108.44 927.096 111.269C919.751 114.853 917.694 114.853 915.344 111.269C914.462 109.76 910.349 108.44 906.236 108.44C900.947 108.44 899.184 109.194 900.653 110.703C902.122 112.212 901.241 112.401 897.715 111.646C894.777 110.892 891.839 110.326 891.252 110.326C887.726 110.326 890.958 106.742 895.365 105.988C903.885 104.479 905.06 104.667 911.524 106.931ZM978.218 108.44C978.218 109.383 976.749 110.326 974.987 110.326C973.517 110.326 972.93 109.383 973.811 108.44C974.693 107.308 976.162 106.553 977.043 106.553C977.631 106.553 978.218 107.308 978.218 108.44ZM997.316 108.44C996.434 109.383 994.378 110.326 992.615 110.326C991.146 110.326 989.971 109.383 989.971 108.44C989.971 107.308 992.027 106.553 994.672 106.553C997.022 106.553 998.197 107.308 997.316 108.44ZM1016.41 111.458C1016.41 111.835 1013.77 111.458 1010.54 110.326C1007.31 109.194 1004.66 107.874 1004.66 107.308C1004.66 106.931 1007.31 107.308 1010.54 108.44C1013.77 109.571 1016.41 110.892 1016.41 111.458ZM1029.63 108.44C1030.52 109.383 1029.34 110.326 1026.99 110.326C1024.35 110.326 1022.29 109.383 1022.29 108.44C1022.29 107.308 1023.46 106.553 1024.93 106.553C1026.7 106.553 1028.75 107.308 1029.63 108.44ZM1047.26 108.44C1046.38 109.383 1043.74 109.76 1041.39 109.006C1035.22 107.685 1035.8 106.553 1043.15 106.553C1046.38 106.553 1048.44 107.308 1047.26 108.44ZM947.369 112.212C948.25 113.155 947.662 114.098 946.193 114.098C944.431 114.098 942.961 113.155 942.961 112.212C942.961 111.08 943.549 110.326 944.137 110.326C945.018 110.326 946.487 111.08 947.369 112.212ZM1167.72 112.212C1166.84 113.155 1164.2 114.098 1162.44 114.098C1160.38 114.098 1160.67 113.344 1163.32 112.212C1168.9 109.949 1170.07 109.949 1167.72 112.212ZM1183.88 113.155C1183.88 114.664 1181.83 115.984 1179.48 115.984C1171.84 115.984 1174.19 112.212 1183.3 110.514C1183.59 110.326 1183.88 111.646 1183.88 113.155ZM1003.19 114.098C1002.31 115.041 999.666 115.984 997.903 115.984C995.847 115.984 996.141 115.23 998.785 114.098C1004.37 111.835 1005.54 111.835 1003.19 114.098ZM1023.76 118.059C1023.76 119.38 1021.11 120.889 1017.88 121.454C1013.18 122.02 1012.89 121.643 1015.83 119.38C1017.59 117.871 1018.18 115.984 1017 115.041C1015.83 114.287 1017 113.91 1019.35 114.476C1021.7 115.041 1023.76 116.55 1023.76 118.059ZM1316.1 116.362C1316.1 117.871 1311.4 119.002 1304.34 119.191C1297.59 119.568 1292.59 118.814 1292.59 117.682C1292.59 116.55 1293.77 116.362 1295.53 116.928C1297 117.493 1300.82 117.116 1303.46 116.173C1310.81 113.532 1316.1 113.721 1316.1 116.362ZM1269.09 117.871C1269.09 118.814 1268.5 119.757 1267.91 119.757C1267.03 119.757 1265.56 118.814 1264.68 117.871C1263.8 116.739 1264.39 115.984 1265.86 115.984C1267.62 115.984 1269.09 116.739 1269.09 117.871ZM1288.18 121.643C1289.07 122.586 1287.89 123.529 1285.25 123.529C1282.6 123.529 1281.43 122.586 1282.31 121.643C1283.19 120.511 1284.66 119.757 1285.25 119.757C1285.83 119.757 1287.3 120.511 1288.18 121.643ZM211.382 126.547C211.382 128.056 209.913 128.81 208.444 128.245C206.681 127.49 206.093 126.17 206.975 125.227C209.619 122.586 211.382 123.152 211.382 126.547ZM200.511 126.736C198.454 127.113 194.929 127.113 193.166 126.736C191.109 126.17 192.578 125.793 196.692 125.793C200.805 125.793 202.274 126.17 200.511 126.736ZM224.603 127.49C228.129 131.074 223.134 131.829 218.139 128.622C213.439 125.604 213.439 125.415 217.846 125.415C220.49 125.415 223.722 126.358 224.603 127.49ZM241.644 129.376C242.819 132.394 242.525 132.772 239 130.885C234.299 128.433 233.417 125.415 237.531 125.415C239 125.415 240.763 127.113 241.644 129.376ZM176.125 129.188C176.125 130.131 175.537 131.074 174.95 131.074C174.068 131.074 172.599 130.131 171.718 129.188C170.837 128.056 171.424 127.302 172.893 127.302C174.656 127.302 176.125 128.056 176.125 129.188ZM265.736 129.188C269.85 130.508 268.087 130.697 259.86 129.754C253.396 129.188 247.52 128.433 246.933 128.056C244.288 126.547 260.154 127.679 265.736 129.188ZM283.365 131.074C284.246 132.017 283.658 132.96 282.189 132.96C280.427 132.96 278.958 132.017 278.958 131.074C278.958 129.942 279.545 129.188 280.133 129.188C281.014 129.188 282.483 129.942 283.365 131.074ZM915.05 165.025C915.931 165.968 914.756 166.911 912.406 166.911C909.761 166.911 907.705 165.968 907.705 165.025C907.705 163.894 908.88 163.139 910.349 163.139C912.112 163.139 914.168 163.894 915.05 165.025ZM382.671 176.908C383.553 178.417 382.378 179.549 380.321 179.549C378.264 179.549 377.089 178.417 377.971 176.908C378.852 175.588 379.733 174.456 380.321 174.456C380.909 174.456 381.79 175.588 382.671 176.908ZM355.347 179.172C355.347 182.378 347.121 182.944 340.657 179.926C337.131 178.417 338.013 178.04 344.476 178.795C348.884 179.172 352.409 178.795 352.409 178.04C352.409 177.097 352.997 176.342 353.878 176.342C354.76 176.342 355.347 177.663 355.347 179.172ZM404.707 179.926C412.64 184.264 412.934 185.773 405.295 184.453C401.769 183.887 400.006 182.944 400.887 182.378C401.475 181.812 400.887 180.303 399.125 178.795C394.424 175.211 397.362 175.777 404.707 179.926ZM395.011 181.624C394.13 182.19 391.779 181.624 389.723 180.303C387.079 178.417 387.372 178.229 391.486 179.36C394.424 179.926 395.893 181.058 395.011 181.624ZM612.429 185.585C610.666 186.528 605.083 183.699 605.083 181.812C605.083 180.869 606.846 181.058 609.197 182.378C611.547 183.699 612.722 185.208 612.429 185.585ZM427.33 183.887C419.397 186.151 414.696 186.151 419.985 183.887C422.335 182.944 426.449 182.19 428.799 182.19C431.737 182.19 431.15 182.755 427.33 183.887ZM539.858 185.585C543.384 185.773 546.322 186.528 546.322 187.471C546.322 188.414 542.796 188.98 538.389 188.791C533.688 188.414 529.281 188.98 528.4 190.112C525.462 192.752 519.879 189.923 521.642 186.905C522.524 185.396 525.462 184.453 528.106 184.83C530.75 185.207 536.039 185.585 539.858 185.585ZM591.568 185.019C599.207 186.905 596.857 189.546 587.749 189.546C577.759 189.546 573.058 186.528 580.697 185.208C583.635 184.642 586.28 184.264 586.574 184.076C586.867 184.076 588.924 184.453 591.568 185.019ZM627.119 185.773C626.237 186.716 623.006 187.66 620.361 187.471C616.248 187.471 616.542 187.094 621.243 185.773C626.531 184.39 628.49 184.39 627.119 185.773ZM568.651 188.037C570.12 189.357 568.651 189.734 564.538 189.169C561.012 188.603 557.78 188.98 557.193 190.112C556.018 192.375 549.26 190.3 549.26 187.471C549.26 185.019 566.007 185.396 568.651 188.037ZM685.293 190.489C689.7 190.866 695.282 191.055 697.633 191.243C699.983 191.243 702.04 192.186 702.04 192.941C702.04 194.639 679.71 194.639 676.772 192.941C675.891 192.186 672.659 192.564 669.721 193.695C665.608 195.393 663.257 195.393 659.144 193.318C654.737 190.677 654.737 190.489 661.201 189.357C665.02 188.603 670.309 188.603 672.659 189.169C675.009 189.734 680.592 190.3 685.293 190.489ZM876.267 188.98C874.211 189.357 870.685 189.357 868.922 188.98C866.865 188.414 868.334 188.037 872.448 188.037C876.561 188.037 878.03 188.414 876.267 188.98ZM960.59 198.222C973.811 198.788 977.043 199.165 973.224 200.108C971.167 200.674 969.992 202.183 970.579 203.315C970.873 204.635 970.873 205.013 970.285 204.07C969.404 203.315 967.054 202.749 964.703 202.749C962.353 202.749 960.59 201.995 960.59 201.24C960.59 200.297 949.131 199.731 935.323 200.108C921.514 200.297 910.937 199.92 911.818 199.354C912.699 198.788 917.106 198.222 921.514 198.034C926.215 197.656 932.384 196.902 935.323 196.147C939.436 195.016 940.317 195.204 938.848 196.713C937.673 198.034 937.967 198.977 939.436 198.977C941.199 198.977 943.255 197.468 944.431 195.582C946.193 192.752 946.781 192.752 949.719 195.204C951.776 196.713 956.477 198.222 960.59 198.222ZM987.033 197.09C987.033 198.222 988.795 198.977 990.852 198.6C992.909 198.222 994.672 198.788 994.965 199.92C995.259 200.863 991.44 201.995 986.739 202.183C977.631 202.749 977.337 202.56 979.981 198.222C982.038 194.827 987.033 194.073 987.033 197.09ZM660.907 198.977C660.907 199.92 660.319 200.863 659.732 200.863C658.85 200.863 657.381 199.92 656.5 198.977C655.618 197.845 656.206 197.09 657.675 197.09C659.438 197.09 660.907 197.845 660.907 198.977ZM1010.54 199.731C1010.54 200.297 1009.36 201.24 1007.6 201.806C1006.13 202.372 1004.66 201.995 1004.66 201.051C1004.66 199.92 1006.13 198.977 1007.6 198.977C1009.36 198.977 1010.54 199.354 1010.54 199.731ZM1019.35 202.749C1019.35 203.692 1018.18 204.635 1016.41 204.635C1014.94 204.635 1013.48 203.692 1013.48 202.749C1013.48 201.617 1014.94 200.863 1016.41 200.863C1018.18 200.863 1019.35 201.617 1019.35 202.749Z" fill="#FFF804"/>
<path fill-rule="evenodd" clip-rule="evenodd" d="M376.023 69.0395C376.023 69.9826 377.493 70.9257 379.255 70.9257C380.724 70.9257 381.312 69.9826 380.431 69.0395C379.549 67.9078 378.08 67.1533 377.199 67.1533C376.611 67.1533 376.023 67.9078 376.023 69.0395Z" fill="#FFF804"/>
<path fill-rule="evenodd" clip-rule="evenodd" d="M384.838 69.0399C384.838 71.4919 388.364 72.6237 392.477 71.492C398.647 69.9831 397.472 67.9082 390.714 67.9082C387.482 67.9082 384.838 68.474 384.838 69.0399Z" fill="#FFF804"/>
<path fill-rule="evenodd" clip-rule="evenodd" d="M174.768 70.9262C173.886 71.8693 174.474 72.8124 175.943 72.8124C177.706 72.8124 179.175 71.8693 179.175 70.9262C179.175 69.7945 178.587 69.04 177.999 69.04C177.118 69.04 175.649 69.7945 174.768 70.9262Z" fill="#FFF804"/>
<path fill-rule="evenodd" clip-rule="evenodd" d="M222.07 71.8693C223.245 73.3783 226.477 74.6986 229.415 74.6986C232.353 74.6986 234.998 73.3783 234.998 71.8693C234.998 70.1718 232.353 69.04 227.653 69.04C222.364 69.04 220.895 69.7945 222.07 71.8693Z" fill="#FFF804"/>
<path fill-rule="evenodd" clip-rule="evenodd" d="M430.672 71.4918C431.553 73.378 433.316 74.321 434.197 73.7552C435.079 73.1893 434.198 71.6805 432.141 70.3602C429.203 68.6626 428.909 68.8512 430.672 71.4918Z" fill="#FFF804"/>
<path fill-rule="evenodd" clip-rule="evenodd" d="M546.434 71.1148C546.434 72.0579 547.903 72.4352 549.372 71.8693C551.135 71.3035 552.31 70.3604 552.31 69.7946C552.31 69.4173 551.135 69.04 549.372 69.04C547.903 69.04 546.434 69.9831 546.434 71.1148Z" fill="#FFF804"/>
<path fill-rule="evenodd" clip-rule="evenodd" d="M164.483 73.0005C164.483 73.9436 165.952 74.3209 167.421 73.7551C169.184 73.1892 170.36 72.2462 170.36 71.6803C170.36 71.3031 169.184 70.9258 167.421 70.9258C165.952 70.9258 164.483 71.8688 164.483 73.0005Z" fill="#FFF804"/>
<path fill-rule="evenodd" clip-rule="evenodd" d="M183.287 73.1893C180.349 76.0186 183.287 76.5842 192.689 74.8867C197.39 73.9436 200.034 73.0005 198.271 72.8119C196.802 72.6233 192.983 72.246 190.338 71.8688C187.4 71.4916 184.169 72.0576 183.287 73.1893Z" fill="#FFF804"/>
<path fill-rule="evenodd" clip-rule="evenodd" d="M239.697 74.1327C237.934 76.7734 238.228 76.9619 241.166 75.2644C243.223 73.944 244.104 72.435 243.223 71.8691C242.342 71.3033 240.579 72.2465 239.697 74.1327Z" fill="#FFF804"/>
<path fill-rule="evenodd" clip-rule="evenodd" d="M625.172 72.2466C622.234 72.6239 619.884 73.7555 619.884 74.6985C619.884 75.453 622.528 75.8304 625.76 75.2645C628.992 74.6986 631.636 73.5669 631.636 72.6238C631.636 71.6807 631.342 71.1147 631.048 71.1147C630.461 71.3034 627.817 71.6808 625.172 72.2466Z" fill="#FFF804"/>
<path fill-rule="evenodd" clip-rule="evenodd" d="M552.309 74.6981C552.309 75.8298 554.365 76.5843 556.716 76.5843C559.066 76.5843 561.123 76.207 561.123 75.8298C561.123 75.4525 559.066 74.6981 556.716 73.9436C554.365 73.3777 552.309 73.755 552.309 74.6981Z" fill="#FFF804"/>
<path fill-rule="evenodd" clip-rule="evenodd" d="M730.063 74.6977C722.13 75.8294 721.836 76.0181 727.419 77.1499C730.944 77.9043 735.645 78.0929 737.996 77.527C740.64 76.7725 743.284 77.7157 744.165 79.2246C746.81 83.3742 754.155 82.9969 755.918 78.6587C756.799 76.2066 756.212 75.2637 753.567 76.0182C751.217 76.3954 747.103 76.0181 744.165 75.2637C741.227 74.3206 735.057 73.9432 730.063 74.6977Z" fill="#FFF804"/>
<path fill-rule="evenodd" clip-rule="evenodd" d="M765.318 76.5844C764.436 77.5275 765.612 78.4706 768.256 78.4706C770.9 78.4706 772.075 77.5275 771.194 76.5844C770.312 75.4527 768.843 74.6982 768.256 74.6982C767.668 74.6982 766.199 75.4527 765.318 76.5844Z" fill="#FFF804"/>
<path fill-rule="evenodd" clip-rule="evenodd" d="M699.213 78.4707C696.863 79.4138 696.275 80.3568 697.744 80.3568C699.507 80.3568 702.739 79.4138 705.089 78.4707C707.44 77.5276 708.321 76.5845 706.558 76.5845C705.089 76.5845 701.564 77.5276 699.213 78.4707Z" fill="#FFF804"/>
<path fill-rule="evenodd" clip-rule="evenodd" d="M781.478 78.0935C781.478 79.0366 783.534 79.7911 785.885 79.7911C788.235 79.7911 790.292 79.0366 790.292 78.0935C790.292 77.339 788.235 76.5845 785.885 76.5845C783.534 76.5845 781.478 77.339 781.478 78.0935Z" fill="#FFF804"/>
<path fill-rule="evenodd" clip-rule="evenodd" d="M798.519 80.5452C794.112 83.5631 794.112 83.9404 801.163 85.0721C808.802 86.2038 815.266 84.3177 808.508 82.8088C806.745 82.2429 805.57 81.1111 806.452 80.3566C809.684 77.1501 803.514 77.3387 798.519 80.5452Z" fill="#FFF804"/>
<path fill-rule="evenodd" clip-rule="evenodd" d="M768.257 82.2431C767.376 83.1862 768.551 84.1293 771.195 84.1293C773.839 84.1293 775.015 83.1862 774.133 82.2431C773.252 81.1114 771.783 80.3569 771.195 80.3569C770.608 80.3569 769.139 81.1114 768.257 82.2431Z" fill="#FFF804"/>
<path fill-rule="evenodd" clip-rule="evenodd" d="M837.301 83.9406C837.301 85.0723 838.476 86.3926 840.239 86.9585C842.002 87.5243 842.296 86.7698 841.414 85.2608C839.358 81.8657 837.301 81.2999 837.301 83.9406Z" fill="#FFF804"/>
<path fill-rule="evenodd" clip-rule="evenodd" d="M854.051 85.638C854.932 88.4672 858.458 89.599 866.978 90.1649C884.313 91.1079 880.2 85.8264 861.69 83.3744C853.463 82.2427 852.582 82.4314 854.051 85.638Z" fill="#FFF804"/>
<path fill-rule="evenodd" clip-rule="evenodd" d="M889.012 86.2042C889.893 87.3359 889.011 89.0334 886.955 89.9765C884.017 91.1082 884.604 91.6741 889.599 91.6741C894.006 91.6741 896.063 90.5424 896.063 87.9018C896.063 85.827 894.006 84.1294 891.362 84.1294C889.011 84.1294 887.836 85.0724 889.012 86.2042Z" fill="#FFF804"/>
<path fill-rule="evenodd" clip-rule="evenodd" d="M899.001 85.8271C899.001 88.0905 907.521 90.1653 911.341 88.6564C913.104 87.9019 912.81 86.7702 910.46 85.8271C905.171 83.7523 899.001 83.7523 899.001 85.8271Z" fill="#FFF804"/>
<path fill-rule="evenodd" clip-rule="evenodd" d="M918.391 88.0899C915.159 90.1647 913.69 92.2397 914.571 92.9941C915.746 93.56 916.628 93.1827 916.628 92.051C916.628 90.7307 918.097 89.7875 919.566 89.7875C921.329 89.7875 922.21 90.9193 921.916 92.051C921.329 93.3714 924.267 94.6916 928.086 95.0689C932.787 95.6347 934.256 95.0688 932.787 93.3713C931.024 91.6737 932.493 91.4851 938.076 92.4282C942.189 92.994 946.596 92.8054 947.478 91.6737C948.359 90.7306 950.71 89.7875 952.179 89.7875C953.942 89.7875 954.529 90.542 953.648 91.2965C951.591 93.3713 965.988 98.4641 968.632 96.7665C969.513 96.012 968.338 95.446 965.694 95.446C963.049 95.446 959.524 93.9372 958.055 92.051C955.998 89.4104 951.297 88.4671 941.308 88.0899C933.375 87.9012 926.617 87.1468 925.442 86.2037C924.561 85.4492 921.329 86.2037 918.391 88.0899Z" fill="#FFF804"/>
<path fill-rule="evenodd" clip-rule="evenodd" d="M373.086 218.237C373.086 219.18 374.555 219.557 376.318 218.803C378.081 218.237 380.725 218.803 382.194 220.123C384.251 222.198 384.838 222.009 384.838 219.369C384.838 217.483 382.488 216.162 378.962 216.162C375.73 216.162 373.086 217.105 373.086 218.237Z" fill="#FFF804"/>
<path fill-rule="evenodd" clip-rule="evenodd" d="M1283.89 228.234C1286.53 230.309 1288.59 230.874 1289.18 229.554C1289.77 228.422 1291.53 227.856 1293 228.611C1294.47 229.177 1301.22 229.931 1307.98 230.308C1326.79 231.44 1317.09 227.856 1297.11 226.348C1280.36 225.027 1279.78 225.216 1283.89 228.234Z" fill="#FFF804"/>
<path fill-rule="evenodd" clip-rule="evenodd" d="M688.93 232.949C689.812 234.081 686.58 234.458 680.41 233.704C675.121 233.138 669.833 233.515 668.658 234.647C667.776 235.779 672.477 236.533 681.585 236.344C693.631 236.344 695.688 235.779 693.044 233.704C689.224 230.874 686.286 230.309 688.93 232.949Z" fill="#FFF804"/>
<path fill-rule="evenodd" clip-rule="evenodd" d="M837.301 234.835C837.301 235.967 839.945 236.91 843.471 236.91C846.703 236.91 848.465 237.664 847.584 238.796C846.703 239.739 846.996 240.682 848.759 240.682C850.228 240.682 852.579 239.739 853.46 238.796C854.342 237.664 856.692 236.91 858.161 236.91C859.924 236.91 860.218 237.664 859.336 238.796C856.692 241.625 860.512 241.06 865.212 238.23C868.444 235.967 867.269 235.59 858.749 235.401C852.873 235.212 845.821 234.646 842.883 234.08C839.651 233.326 837.301 233.703 837.301 234.835Z" fill="#FFF804"/>
<path fill-rule="evenodd" clip-rule="evenodd" d="M940.133 238.796C940.133 241.06 942.189 242.569 945.421 242.569C949.828 242.569 949.828 242.191 946.009 240.494C942.483 238.985 943.071 238.796 948.653 239.174C953.06 239.551 956.292 238.608 956.88 236.91C958.055 234.647 957.761 234.647 955.411 236.722C953.354 238.419 951.885 238.608 950.71 237.099C947.184 233.704 940.133 234.835 940.133 238.796Z" fill="#FFF804"/>
<path fill-rule="evenodd" clip-rule="evenodd" d="M788.824 238.796C789.705 239.739 792.643 240.683 794.994 240.683C797.344 240.683 799.107 239.739 799.107 238.796C799.107 237.665 796.463 236.91 792.937 236.91C789.705 236.91 787.942 237.665 788.824 238.796Z" fill="#FFF804"/>
<path fill-rule="evenodd" clip-rule="evenodd" d="M1126.11 238.608C1120.53 241.249 1123.47 243.512 1132.87 243.89C1139.63 244.267 1142.86 243.701 1142.86 241.815C1142.86 239.174 1130.23 236.722 1126.11 238.608Z" fill="#FFF804"/>
<path fill-rule="evenodd" clip-rule="evenodd" d="M871.09 240.683C871.971 241.626 875.203 242.569 877.847 242.569C882.254 242.569 882.254 242.192 878.435 240.683C872.559 238.231 868.739 238.231 871.09 240.683Z" fill="#FFF804"/>
<path fill-rule="evenodd" clip-rule="evenodd" d="M1109.07 240.682C1108.19 241.625 1108.78 242.568 1110.25 242.568C1112.01 242.568 1113.48 241.625 1113.48 240.682C1113.48 239.55 1112.89 238.796 1112.31 238.796C1111.42 238.796 1109.96 239.55 1109.07 240.682Z" fill="#FFF804"/>
</g>
</svg>
